<?xml version="1.0" encoding="iso-8859-1"?>
<!-- Generator: Adobe Illustrator 19.0.0, SVG Export Plug-In . SVG Version: 6.00 Build 0)  -->
<svg version="1.1" id="Layer_1" xmlns="http://www.w3.org/2000/svg" xmlns:xlink="http://www.w3.org/1999/xlink" x="0px" y="0px"
	 viewBox="0 0 505 505" style="enable-background:new 0 0 505 505;" xml:space="preserve">
<circle style="fill:#FD8469;" cx="252.5" cy="252.5" r="252.5"/>
<path style="fill:#324A5E;" d="M364.2,433.6H140.8c-2.7,0-4.9-2.2-4.9-4.9V76.4c0-2.7,2.2-4.9,4.9-4.9h223.3c2.7,0,4.9,2.2,4.9,4.9
	v352.3C369.1,431.4,366.9,433.6,364.2,433.6z"/>
<rect x="160.3" y="110.5" style="fill:#FBFDFC;" width="184.5" height="273.1"/>
<g>
	<circle style="fill:#2B3B4E;" cx="252.5" cy="407" r="12.6"/>
	<path style="fill:#2B3B4E;" d="M290,98.6h-75c-2.9,0-5.2-2.3-5.2-5.2l0,0c0-2.9,2.3-5.2,5.2-5.2h75c2.9,0,5.2,2.3,5.2,5.2l0,0
		C295.2,96.2,292.9,98.6,290,98.6z"/>
</g>
<path style="fill:#4CDBC4;" d="M243.1,193.8h-70.6c-0.8,0-1.5-0.7-1.5-1.5v-70.6c0-0.8,0.7-1.5,1.5-1.5h70.6c0.8,0,1.5,0.7,1.5,1.5
	v70.6C244.6,193.1,243.9,193.8,243.1,193.8z"/>
<path style="fill:#84DBFF;" d="M332.5,193.8h-70.6c-0.8,0-1.5-0.7-1.5-1.5v-70.6c0-0.8,0.7-1.5,1.5-1.5h70.6c0.8,0,1.5,0.7,1.5,1.5
	v70.6C334,193.1,333.3,193.8,332.5,193.8z"/>
<path style="fill:#FFD05B;" d="M243.1,283.8h-70.6c-0.8,0-1.5-0.7-1.5-1.5v-70.6c0-0.8,0.7-1.5,1.5-1.5h70.6c0.8,0,1.5,0.7,1.5,1.5
	v70.6C244.6,283.2,243.9,283.8,243.1,283.8z"/>
<path style="fill:#FF7058;" d="M332.5,283.8h-70.6c-0.8,0-1.5-0.7-1.5-1.5v-70.6c0-0.8,0.7-1.5,1.5-1.5h70.6c0.8,0,1.5,0.7,1.5,1.5
	v70.6C334,283.2,333.3,283.8,332.5,283.8z"/>
<path style="fill:#E6E9EE;" d="M243.1,373.9h-70.6c-0.8,0-1.5-0.7-1.5-1.5v-70.6c0-0.8,0.7-1.5,1.5-1.5h70.6c0.8,0,1.5,0.7,1.5,1.5
	v70.6C244.6,373.2,243.9,373.9,243.1,373.9z"/>
<path style="fill:#FFD05B;" d="M332.5,373.9h-70.6c-0.8,0-1.5-0.7-1.5-1.5v-70.6c0-0.8,0.7-1.5,1.5-1.5h70.6c0.8,0,1.5,0.7,1.5,1.5
	v70.6C334,373.2,333.3,373.9,332.5,373.9z"/>
<g>
	<path style="fill:#FBFDFC;" d="M230.6,154.6c0-2.5-1.8-4.6-4.1-5v-10.7c0-1.3-1.7-2-2.5-0.9c-8.9,10.6-25.4,10-25.4,10h-6.8
		c-3.7,0-6.7,3-6.7,6.7c0,3.5,2.7,6.4,6.1,6.7c-0.2,3.6,0.5,9.5,1,12.8c0.2,1.4,1,2.4,2.1,2.4h2.3c1.6,0,2.6-2.3,1.9-4.2
		c-0.3-0.8-0.5-1.6-0.8-2.4l0.7-0.1c0.5-0.1,0.9-0.6,0.8-1.1l-0.6-3.2c-0.1-0.5-0.6-0.9-1.1-0.8l-0.7,0.1c-0.2-1.4-0.3-2.6-0.3-3.5
		h2.3c0,0,16.5-0.6,25.4,10c0.9,1,2.5,0.4,2.5-0.9v-10.7C228.8,159.2,230.6,157.1,230.6,154.6z"/>
	<path style="fill:#FBFDFC;" d="M302.4,176.5L302.4,176.5c-1.8,0-3.3-1.3-3.6-3c-0.9-5.3-1-18.6-1-18.6h-1.3c0,0-0.1,13.3-1,18.6
		c-0.3,1.7-1.8,3-3.6,3l0,0c-0.4,0-0.8,0.3-0.8,0.7s0.3,0.8,0.8,0.8h10.6c0.4,0,0.8-0.4,0.8-0.8
		C303.2,176.8,302.9,176.5,302.4,176.5z"/>
	<path style="fill:#FBFDFC;" d="M289.7,135.9c-1.1,3.4-1.8,7.4-1.8,10.9c0,9,4.1,12.3,9.2,12.3s9.2-3.3,9.2-12.3
		c0-3.6-0.7-7.5-1.8-10.9H289.7z"/>
	<path style="fill:#FBFDFC;" d="M304.9,244h-15.4c-5.7,5-10.2,11.6-12.8,19.3c2.8-2.5,5.8-4.5,8.8-6l0,0c0.8,3.3,2,6.3,3.5,9
		c0.8-6.7,3.6-13.2,8.2-18.6c4.6,5.4,7.4,11.9,8.2,18.6c1.5-2.7,2.7-5.7,3.5-9l0,0c3,1.5,6,3.5,8.8,6
		C315.1,255.7,310.6,249.1,304.9,244z"/>
	<path style="fill:#FBFDFC;" d="M321.6,230.5c0,0-2.8-11.3-21.8,11.4l22.4-6.9L321.6,230.5z"/>
	<path style="fill:#FBFDFC;" d="M298.5,241.2c0,0,13.9-11.3,22.1-11.4c1.5,0,2.7,0.9,3.2,2.3c1.2,3.9,3.4,12.7,1,16.9
		c-0.7,1.2-2.2,1.9-3.7,1.7c-4.9-0.5-19.4-2.1-22.6-4.2V241.2z"/>
</g>
<path id="SVGCleanerId_0" style="fill:#FBFDFC;" d="M325.1,248.4c-0.1,0.2-0.2,0.4-0.3,0.6c-0.7,1.2-2.2,1.9-3.7,1.7
	c-3.5-0.4-11.7-1.3-17.4-2.5C309.6,246.1,320.1,243.5,325.1,248.4z"/>
<g>
	<path id="SVGCleanerId_0_1_" style="fill:#FBFDFC;" d="M325.1,248.4c-0.1,0.2-0.2,0.4-0.3,0.6c-0.7,1.2-2.2,1.9-3.7,1.7
		c-3.5-0.4-11.7-1.3-17.4-2.5C309.6,246.1,320.1,243.5,325.1,248.4z"/>
</g>
<g>
	<path style="fill:#FBFDFC;" d="M272.8,230.5c0,0,2.8-11.3,21.8,11.4l-22.4-6.9L272.8,230.5z"/>
	<path style="fill:#FBFDFC;" d="M295.9,241.2c0,0-13.9-11.3-22.1-11.4c-1.5,0-2.7,0.9-3.2,2.3c-1.2,3.9-3.4,12.7-1,16.9
		c0.7,1.2,2.2,1.9,3.7,1.7c4.9-0.5,19.4-2.1,22.6-4.2V241.2z"/>
</g>
<path id="SVGCleanerId_1" style="fill:#FBFDFC;" d="M269.3,248.4c0.1,0.2,0.2,0.4,0.3,0.6c0.7,1.2,2.2,1.9,3.7,1.7
	c3.5-0.4,11.7-1.3,17.4-2.5C284.8,246.1,274.3,243.5,269.3,248.4z"/>
<g>
	<path id="SVGCleanerId_1_1_" style="fill:#FBFDFC;" d="M269.3,248.4c0.1,0.2,0.2,0.4,0.3,0.6c0.7,1.2,2.2,1.9,3.7,1.7
		c3.5-0.4,11.7-1.3,17.4-2.5C284.8,246.1,274.3,243.5,269.3,248.4z"/>
</g>
<path style="fill:#FBFDFC;" d="M301.1,249.2h-7.9c-0.3,0-0.6-0.3-0.6-0.6v-10.8c0-0.3,0.3-0.6,0.6-0.6h7.9c0.3,0,0.6,0.3,0.6,0.6
	v10.8C301.7,249,301.4,249.2,301.1,249.2z"/>
<g>
</g>
<g>
</g>
<g>
</g>
<g>
</g>
<g>
</g>
<g>
</g>
<g>
</g>
<g>
</g>
<g>
</g>
<g>
</g>
<g>
</g>
<g>
</g>
<g>
</g>
<g>
</g>
<g>
</g>
</svg>
