<?xml version="1.0" encoding="iso-8859-1"?>
<!-- Generator: Adobe Illustrator 18.0.0, SVG Export Plug-In . SVG Version: 6.00 Build 0)  -->
<!DOCTYPE svg PUBLIC "-//W3C//DTD SVG 1.1//EN" "http://www.w3.org/Graphics/SVG/1.1/DTD/svg11.dtd">
<svg version="1.1" id="Capa_1" xmlns="http://www.w3.org/2000/svg" xmlns:xlink="http://www.w3.org/1999/xlink" x="0px" y="0px"
	 viewBox="0 0 467.17 467.17" style="enable-background:new 0 0 467.17 467.17;" xml:space="preserve">
<g>
	<polygon style="fill:#FFE473;" points="0,321.928 135.82,86.681 271.64,321.928 	"/>
	<polygon style="fill:#FFE473;" points="152.024,321.928 309.597,49.004 467.17,321.928 	"/>
	<path style="fill:#26A3BF;" d="M429.771,228.185v163.97c0,14.36-11.65,26.01-26.01,26.01H71.801c-14.37,0-26.01-11.65-26.01-26.01
		v-163.97c0-14.37,11.64-26.01,26.01-26.01h331.96C418.121,202.176,429.771,213.815,429.771,228.185z"/>
	<rect x="89.282" y="202.174" style="opacity:0.5;fill:#FFFFFF;" width="296.99" height="215.99"/>
	<polygon style="fill:#FFE473;" points="264.677,402.925 106.998,402.925 185.837,266.377 221.02,327.315 	"/>
	<polygon style="fill:#E5CD65;" points="264.677,402.925 177.363,402.925 221.02,327.315 	"/>
	<polygon style="fill:#FFE473;" points="195.241,402.928 286.707,244.505 378.173,402.928 	"/>
	<circle style="fill:#F98680;" cx="148.761" cy="251.856" r="26"/>
	<g>
		<path style="fill:#FFFFFF;" d="M291.639,244.667v13.964h13.428v3.565h-13.428v14.082h-3.803v-14.082h-13.429v-3.565h13.429
			v-13.964H291.639z"/>
		<path style="fill:#FFFFFF;" d="M326.279,276.278v-10.517h-17.944v-3.446l17.231-24.659h5.645v24.005h5.407v4.1h-5.407v10.517
			H326.279z M326.279,261.661v-12.894c0-2.02,0.059-4.04,0.178-6.06h-0.178c-1.189,2.258-2.139,3.922-3.208,5.704l-9.448,13.131
			v0.119H326.279z"/>
		<path style="fill:#FFFFFF;" d="M366.267,256.552c0,13.131-4.872,20.38-13.429,20.38c-7.546,0-12.656-7.07-12.774-19.845
			c0-12.953,5.585-20.083,13.428-20.083C361.632,237.003,366.267,244.252,366.267,256.552z M345.292,257.145
			c0,10.042,3.09,15.746,7.843,15.746c5.348,0,7.903-6.239,7.903-16.102c0-9.507-2.436-15.745-7.843-15.745
			C348.62,241.043,345.292,246.629,345.292,257.145z"/>
	</g>
	<rect x="279.605" y="291.967" style="fill:#FFFFFF;" width="81.793" height="11.14"/>
	<path style="opacity:0.5;fill:#FFFFFF;" d="M193.591,202.176l-147.8,147.79v-121.78c0-14.37,11.64-26.01,26.01-26.01H193.591z"/>
	<path style="opacity:0.5;fill:#FFFFFF;" d="M429.771,262.496v129.66c0,14.36-11.65,26.01-26.01,26.01h-129.67L429.771,262.496z"/>
</g>
<g>
</g>
<g>
</g>
<g>
</g>
<g>
</g>
<g>
</g>
<g>
</g>
<g>
</g>
<g>
</g>
<g>
</g>
<g>
</g>
<g>
</g>
<g>
</g>
<g>
</g>
<g>
</g>
<g>
</g>
</svg>
