<?xml version="1.0" encoding="iso-8859-1"?>
<!-- Generator: Adobe Illustrator 19.0.0, SVG Export Plug-In . SVG Version: 6.00 Build 0)  -->
<svg version="1.1" id="Layer_1" xmlns="http://www.w3.org/2000/svg" xmlns:xlink="http://www.w3.org/1999/xlink" x="0px" y="0px"
	 viewBox="0 0 512 512" style="enable-background:new 0 0 512 512;" xml:space="preserve">
<path style="fill:#FFDB56;" d="M253.29,497.561c-0.321-0.317-32.283-32.443-45.832-88.7c-3.796-15.757-5.757-43.065-8.029-74.684
	c-6.372-88.724-14.304-199.144-71.25-199.144s-64.878,110.42-71.251,199.144c-2.271,31.62-4.233,58.927-8.029,74.684
	c-13.483,55.973-45.522,88.389-45.833,88.7c-3.313,3.279-3.341,8.622-0.063,11.935c3.28,3.314,8.624,3.339,11.935,0.063
	c0.329-0.325,2.353-2.362,5.441-5.999h215.599c3.088,3.637,5.111,5.674,5.441,5.999c1.645,1.628,3.791,2.441,5.936,2.441
	c2.174,0,4.348-0.835,5.999-2.504C256.632,506.182,256.604,500.84,253.29,497.561z"/>
<g>
	<path style="fill:#FBA806;" d="M3.004,509.495c3.28,3.314,8.624,3.339,11.935,0.063c0.329-0.325,2.353-2.362,5.441-5.999H0.565
		C0.565,505.704,1.376,507.85,3.004,509.495z"/>
	<path style="fill:#FBA806;" d="M253.29,497.561c-0.321-0.317-32.283-32.443-45.832-88.7c-3.796-15.757-5.757-43.065-8.029-74.684
		c-6.372-88.724-14.304-199.144-71.25-199.144c-8.127,0-15.251,2.256-21.519,6.369c37.655,24.711,44.268,116.711,49.731,192.774
		c2.272,31.62,4.233,58.927,8.029,74.684c13.551,56.257,45.512,88.382,45.832,88.7c1.668,1.651,2.501,3.825,2.501,5.999h23.224
		c3.088,3.637,5.111,5.674,5.441,5.999c1.645,1.628,3.791,2.441,5.936,2.441c2.174,0,4.348-0.835,5.999-2.504
		C256.632,506.182,256.604,500.84,253.29,497.561z"/>
</g>
<path style="fill:#894BA2;" d="M487.554,497.561c-0.321-0.317-32.283-32.443-45.832-88.7c-3.797-15.757-5.758-43.066-8.029-74.685
	c-6.374-88.724-14.306-199.143-71.251-199.143s-64.876,110.418-71.25,199.142c-2.272,31.621-4.233,58.929-8.029,74.687
	c-13.483,55.973-45.522,88.389-45.832,88.7c-3.313,3.279-3.341,8.622-0.063,11.935c3.28,3.314,8.623,3.339,11.935,0.063
	c0.329-0.325,2.353-2.362,5.441-5.999h215.599c3.088,3.637,5.111,5.674,5.441,5.999c1.645,1.628,3.791,2.441,5.936,2.441
	c2.174,0,4.348-0.835,5.999-2.504C490.895,506.182,490.867,500.84,487.554,497.561z"/>
<g>
	<path style="fill:#763794;" d="M237.267,509.495c3.28,3.314,8.623,3.339,11.935,0.063c0.329-0.325,2.353-2.362,5.441-5.999h-19.814
		C234.828,505.704,235.639,507.85,237.267,509.495z"/>
	<path style="fill:#763794;" d="M487.554,497.561c-0.321-0.317-32.283-32.443-45.832-88.7c-3.797-15.757-5.758-43.066-8.029-74.685
		c-6.374-88.724-14.306-199.143-71.251-199.143c-8.29,0-15.533,2.354-21.892,6.626c37.323,25.076,43.913,116.708,49.358,192.516
		c2.271,31.62,4.233,58.928,8.029,74.685c13.551,56.257,45.512,88.382,45.832,88.7c1.668,1.651,2.501,3.825,2.501,5.999h23.971
		c3.088,3.637,5.111,5.674,5.441,5.999c1.645,1.628,3.791,2.441,5.936,2.441c2.174,0,4.348-0.835,5.999-2.504
		C490.895,506.182,490.867,500.84,487.554,497.561z"/>
</g>
<path style="fill:#F77935;" d="M336.504,496.469c-0.315-0.205-31.699-20.856-44.766-56.122c-3.598-9.711-5.623-28.038-7.767-47.441
	c-3.053-27.637-6.514-58.96-15.686-84.283c-11.441-31.589-30.126-47.606-55.534-47.606s-44.094,16.016-55.534,47.606
	c-9.172,25.324-12.633,56.647-15.686,84.283c-2.144,19.403-4.169,37.73-7.767,47.441c-13.067,35.266-44.451,55.917-44.754,56.114
	c-3.919,2.522-5.052,7.744-2.531,11.663c1.613,2.508,4.33,3.874,7.105,3.874c1.564,0,3.146-0.434,4.558-1.342
	c0.459-0.296,4.146-2.704,9.458-7.098h210.302c5.312,4.394,8.999,6.802,9.458,7.098c3.915,2.516,9.124,1.386,11.65-2.523
	C341.535,504.223,340.411,499.002,336.504,496.469z"/>
<g>
	<path style="fill:#D9510D;" d="M336.504,496.469c-0.315-0.205-31.699-20.856-44.766-56.122c-3.598-9.711-5.623-28.038-7.767-47.441
		c-3.053-27.637-6.514-58.96-15.686-84.283c-11.441-31.589-30.126-47.606-55.534-47.606c-8.203,0-15.7,1.68-22.484,5.003
		c14.229,6.971,25.303,21.211,33.05,42.603c9.172,25.324,12.633,56.647,15.686,84.283c2.144,19.403,4.169,37.73,7.767,47.441
		c13.067,35.266,44.451,55.917,44.766,56.122c2.492,1.616,3.846,4.324,3.848,7.09h22.517c5.312,4.394,8.999,6.802,9.458,7.098
		c3.915,2.516,9.124,1.386,11.65-2.523C341.535,504.223,340.411,499.002,336.504,496.469z"/>
	<path style="fill:#D9510D;" d="M86.477,508.126c1.613,2.508,4.33,3.874,7.105,3.874c1.564,0,3.146-0.434,4.558-1.342
		c0.459-0.296,4.146-2.704,9.458-7.098H85.141C85.139,505.126,85.567,506.71,86.477,508.126z"/>
</g>
<path style="fill:#808080;" d="M502.998,511.999H9.004c-4.661,0-8.44-3.778-8.44-8.44V8.44C0.564,3.778,4.343,0,9.004,0
	s8.44,3.778,8.44,8.44v486.68h485.555c4.661,0,8.44,3.778,8.44,8.44C511.438,508.221,507.659,511.999,502.998,511.999z"/>
<g>
</g>
<g>
</g>
<g>
</g>
<g>
</g>
<g>
</g>
<g>
</g>
<g>
</g>
<g>
</g>
<g>
</g>
<g>
</g>
<g>
</g>
<g>
</g>
<g>
</g>
<g>
</g>
<g>
</g>
</svg>
