<?xml version="1.0" encoding="iso-8859-1"?>
<!-- Generator: Adobe Illustrator 19.0.0, SVG Export Plug-In . SVG Version: 6.00 Build 0)  -->
<svg version="1.1" id="Layer_1" xmlns="http://www.w3.org/2000/svg" xmlns:xlink="http://www.w3.org/1999/xlink" x="0px" y="0px"
	 viewBox="0 0 512 512" style="enable-background:new 0 0 512 512;" xml:space="preserve">
<path style="fill:#A0DDDF;" d="M339.723,161.055l-32.416,32.061L256,129.407C288.102,129.407,317.407,141.363,339.723,161.055z"/>
<path style="fill:#20AAB0;" d="M307.308,318.884l32.416,32.061c-22.316,19.693-51.622,31.648-83.724,31.648L307.308,318.884z"/>
<path style="fill:#71CCCE;" d="M339.723,161.055c26.286,23.196,42.871,57.131,42.871,94.945l-74.549,11.253l-0.736-85.389
	C319.186,176.588,330.105,169.543,339.723,161.055z"/>
<path style="fill:#41BBBE;" d="M308.044,256h74.549c0,37.814-16.584,71.749-42.871,94.945c-9.618-8.488-20.536-15.533-32.416-20.809
	L308.044,256z"/>
<path style="fill:#20AAB0;" d="M172.277,161.055l32.416,32.061L256,129.407C223.898,129.407,194.593,141.363,172.277,161.055z"/>
<path style="fill:#06484A;" d="M204.692,318.884l-32.416,32.061c22.316,19.693,51.622,31.648,83.724,31.648L204.692,318.884z"/>
<path style="fill:#14858A;" d="M172.277,161.055c-26.286,23.196-42.871,57.131-42.871,94.945l74.549,11.253l0.736-85.389
	C192.814,176.588,181.895,169.543,172.277,161.055z"/>
<path style="fill:#086063;" d="M203.956,256h-74.549c0,37.814,16.584,71.749,42.871,94.945c9.618-8.488,20.536-15.533,32.416-20.809
	L203.956,256z"/>
<path style="fill:#20AAB0;" d="M204.692,181.864c-7.54,20.839-11.989,46.447-11.989,74.136l74.549,22.505v-85.802L204.692,181.864z"
	/>
<path style="fill:#14858A;" d="M192.703,256c0,27.69,4.448,53.299,11.989,74.136l62.561-10.84V256H192.703z"/>
<path style="fill:#086063;" d="M204.692,330.136c11.499,31.778,30.196,52.457,51.308,52.457l11.253-30.57L256,319.297
	C237.733,319.297,220.375,323.172,204.692,330.136z"/>
<g>
	<path style="fill:#41BBBE;" d="M204.692,181.864c15.683,6.964,33.041,10.84,51.308,10.84l11.253-31.648L256,129.407
		C234.888,129.407,216.192,150.086,204.692,181.864z"/>
	<path style="fill:#41BBBE;" d="M307.308,181.864L256,192.703V256l31.648,11.253L319.297,256
		C319.297,228.31,314.849,202.701,307.308,181.864z"/>
</g>
<path style="fill:#20AAB0;" d="M256,256v63.297l51.308,10.84c7.54-20.839,11.989-46.447,11.989-74.136H256z"/>
<path style="fill:#14858A;" d="M307.308,330.136c-15.683-6.964-33.041-10.84-51.308-10.84v63.297
	C277.112,382.593,295.809,361.914,307.308,330.136z"/>
<path style="fill:#71CCCE;" d="M256,192.703c18.267,0,35.625-3.875,51.308-10.84c-11.5-31.778-30.196-52.457-51.308-52.457V192.703z
	"/>
<g>
	<path style="fill:#F7AD3F;" d="M416.352,247.56c-4.661,0-8.44,3.778-8.44,8.44c0,4.662,3.779,8.44,8.44,8.44h67.517V247.56H416.352
		z"/>
	<path style="fill:#F7AD3F;" d="M95.648,247.56H28.132v16.879h67.516c4.661,0,8.44-3.778,8.44-8.44
		C104.088,251.338,100.309,247.56,95.648,247.56z"/>
</g>
<g>
	<circle style="fill:#F76720;" cx="483.868" cy="256" r="28.132"/>
	<circle style="fill:#F76720;" cx="28.132" cy="256" r="28.132"/>
</g>
<g>
	<path style="fill:#F7AD3F;" d="M363.418,136.647c-3.296,3.296-3.296,8.639,0,11.936c3.296,3.296,8.64,3.296,11.936,0l47.741-47.741
		l-11.936-11.936L363.418,136.647z"/>
	<path style="fill:#F7AD3F;" d="M136.647,363.418l-47.741,47.741l11.936,11.936l47.741-47.741c3.296-3.296,3.296-8.639,0-11.936
		C145.285,360.122,139.943,360.123,136.647,363.418z"/>
</g>
<g>
	<circle style="fill:#E4769A;" cx="417.128" cy="94.872" r="28.132"/>
	<circle style="fill:#E4769A;" cx="94.872" cy="417.128" r="28.132"/>
</g>
<g>
	<path style="fill:#F7AD3F;" d="M375.353,363.418c-3.296-3.296-8.639-3.296-11.936,0c-3.296,3.296-3.296,8.64,0,11.936
		l47.741,47.741l11.936-11.936L375.353,363.418z"/>
	<path style="fill:#F7AD3F;" d="M148.582,136.647L100.84,88.906L88.906,100.84l47.741,47.741c3.296,3.296,8.639,3.296,11.936,0
		C151.879,145.285,151.877,139.943,148.582,136.647z"/>
</g>
<g>
	<circle style="fill:#E4769A;" cx="417.128" cy="417.128" r="28.132"/>
	<circle style="fill:#E4769A;" cx="94.872" cy="94.872" r="28.132"/>
</g>
<g>
	<path style="fill:#F7AD3F;" d="M247.56,95.648c0,4.661,3.778,8.44,8.44,8.44c4.662,0,8.44-3.779,8.44-8.44V28.132H247.56V95.648z"
		/>
	<path style="fill:#F7AD3F;" d="M247.56,416.352v67.517h16.879v-67.517c0-4.661-3.778-8.44-8.44-8.44
		C251.338,407.912,247.56,411.691,247.56,416.352z"/>
</g>
<g>
	<circle style="fill:#F76720;" cx="256" cy="28.132" r="28.132"/>
	<circle style="fill:#F76720;" cx="256" cy="483.868" r="28.132"/>
</g>
<g>
</g>
<g>
</g>
<g>
</g>
<g>
</g>
<g>
</g>
<g>
</g>
<g>
</g>
<g>
</g>
<g>
</g>
<g>
</g>
<g>
</g>
<g>
</g>
<g>
</g>
<g>
</g>
<g>
</g>
</svg>
