<?xml version="1.0" encoding="iso-8859-1"?>
<!-- Generator: Adobe Illustrator 19.0.0, SVG Export Plug-In . SVG Version: 6.00 Build 0)  -->
<svg version="1.1" id="Layer_1" xmlns="http://www.w3.org/2000/svg" xmlns:xlink="http://www.w3.org/1999/xlink" x="0px" y="0px"
	 viewBox="0 0 512 512" style="enable-background:new 0 0 512 512;" xml:space="preserve">
<g>
	<path style="fill:#BDC3C7;" d="M351.103,472.276H160.886c-1.969,0-2.737-2.719-1.095-3.858l15.943-11.238
		c17.187-12.12,25.309-34.348,20.303-55.526h119.94v0.018c-5.014,21.177,3.116,43.405,20.312,55.526l15.925,11.22
		C353.857,469.575,353.08,472.276,351.103,472.276"/>
	<path style="fill:#556080;" d="M512,331.034H0V44.129c0-17.064,13.824-30.888,30.879-30.888h450.242
		c17.055,0,30.879,13.824,30.879,30.888V331.034z"/>
	<g>
		<path style="fill:#ECF0F1;" d="M357.517,498.759H154.483c-7.283,0-13.241-5.959-13.241-13.241s5.959-13.241,13.241-13.241h203.034
			c7.283,0,13.241,5.959,13.241,13.241S364.8,498.759,357.517,498.759"/>
		<path style="fill:#ECF0F1;" d="M0,370.772c0,17.055,13.824,30.888,30.879,30.888h450.242c17.055,0,30.879-13.833,30.879-30.888
			v-39.733H0V370.772z"/>
		<path style="fill:#ECF0F1;" d="M414.897,172.138l-44.977,47.386c-62.914,66.286-164.926,66.286-227.84,0l-44.977-47.386
			l44.977-47.386c62.914-66.286,164.926-66.286,227.84,0L414.897,172.138z"/>
	</g>
	<path style="fill:#4482C3;" d="M308.966,172.138c0,29.246-23.72,52.966-52.966,52.966s-52.966-23.72-52.966-52.966
		s23.72-52.966,52.966-52.966S308.966,142.892,308.966,172.138"/>
</g>
<g>
</g>
<g>
</g>
<g>
</g>
<g>
</g>
<g>
</g>
<g>
</g>
<g>
</g>
<g>
</g>
<g>
</g>
<g>
</g>
<g>
</g>
<g>
</g>
<g>
</g>
<g>
</g>
<g>
</g>
</svg>
